<mxfile host="app.diagrams.net" agent="Mozilla/5.0 (Windows NT 10.0; Win64; x64; rv:132.0) Gecko/20100101 Firefox/132.0" version="24.8.4">
  <diagram name="Page-1" id="Q8XXpIj9l2ZmjCHqsJ5m">
    <mxGraphModel dx="1195" dy="644" grid="1" gridSize="10" guides="1" tooltips="1" connect="1" arrows="1" fold="1" page="1" pageScale="1" pageWidth="850" pageHeight="1400" math="0" shadow="0">
      <root>
        <mxCell id="0" />
        <mxCell id="1" parent="0" />
        <mxCell id="-veU9qJLNlzz8U-IbR3Y-1" value="Vendedor" style="swimlane;fontStyle=1;align=center;verticalAlign=top;childLayout=stackLayout;horizontal=1;startSize=26;horizontalStack=0;resizeParent=1;resizeParentMax=0;resizeLast=0;collapsible=1;marginBottom=0;whiteSpace=wrap;html=1;" parent="1" vertex="1">
          <mxGeometry x="160" y="390" width="240" height="188" as="geometry" />
        </mxCell>
        <mxCell id="rAGmqaZjJyk7b_XVC86M-1" value="Extends" style="endArrow=block;endSize=16;endFill=0;html=1;rounded=0;entryX=0.25;entryY=1;entryDx=0;entryDy=0;" edge="1" parent="-veU9qJLNlzz8U-IbR3Y-1" target="-veU9qJLNlzz8U-IbR3Y-9">
          <mxGeometry width="160" relative="1" as="geometry">
            <mxPoint x="90" as="sourcePoint" />
            <mxPoint x="210" y="-150" as="targetPoint" />
          </mxGeometry>
        </mxCell>
        <mxCell id="-veU9qJLNlzz8U-IbR3Y-2" value="&lt;div&gt;+ productosEnVenta : List&amp;lt;Producto&amp;gt;&lt;br&gt;&lt;/div&gt;" style="text;strokeColor=none;fillColor=none;align=left;verticalAlign=top;spacingLeft=4;spacingRight=4;overflow=hidden;rotatable=0;points=[[0,0.5],[1,0.5]];portConstraint=eastwest;whiteSpace=wrap;html=1;" parent="-veU9qJLNlzz8U-IbR3Y-1" vertex="1">
          <mxGeometry y="26" width="240" height="64" as="geometry" />
        </mxCell>
        <mxCell id="-veU9qJLNlzz8U-IbR3Y-3" value="" style="line;strokeWidth=1;fillColor=none;align=left;verticalAlign=middle;spacingTop=-1;spacingLeft=3;spacingRight=3;rotatable=0;labelPosition=right;points=[];portConstraint=eastwest;strokeColor=inherit;" parent="-veU9qJLNlzz8U-IbR3Y-1" vertex="1">
          <mxGeometry y="90" width="240" height="8" as="geometry" />
        </mxCell>
        <mxCell id="rAGmqaZjJyk7b_XVC86M-4" value="&lt;div&gt;&amp;lt;&amp;lt;create&amp;gt;&amp;gt; Vendedor&amp;nbsp;&lt;/div&gt;&lt;div&gt;(nombre: String, ,&amp;nbsp;&lt;/div&gt;&lt;div&gt;direccion: String)&lt;/div&gt;&lt;div&gt;+ agregarProducto (producto: Producto)&lt;br&gt;&lt;/div&gt;&lt;div&gt;&lt;br&gt;&lt;/div&gt;" style="text;html=1;align=left;verticalAlign=middle;resizable=0;points=[];autosize=1;strokeColor=none;fillColor=none;" vertex="1" parent="-veU9qJLNlzz8U-IbR3Y-1">
          <mxGeometry y="98" width="240" height="90" as="geometry" />
        </mxCell>
        <mxCell id="-veU9qJLNlzz8U-IbR3Y-5" value="Producto" style="swimlane;fontStyle=1;align=center;verticalAlign=top;childLayout=stackLayout;horizontal=1;startSize=26;horizontalStack=0;resizeParent=1;resizeParentMax=0;resizeLast=0;collapsible=1;marginBottom=0;whiteSpace=wrap;html=1;" parent="1" vertex="1">
          <mxGeometry x="190" y="700" width="180" height="98" as="geometry" />
        </mxCell>
        <mxCell id="-veU9qJLNlzz8U-IbR3Y-6" value="&lt;div&gt;+ nombre :String&lt;/div&gt;&lt;div&gt;+ categoria : String&lt;/div&gt;&lt;div&gt;+ precio : double&lt;/div&gt;&lt;div&gt;+ cantidadUnidades : int&lt;/div&gt;" style="text;strokeColor=none;fillColor=none;align=left;verticalAlign=top;spacingLeft=4;spacingRight=4;overflow=hidden;rotatable=0;points=[[0,0.5],[1,0.5]];portConstraint=eastwest;whiteSpace=wrap;html=1;" parent="-veU9qJLNlzz8U-IbR3Y-5" vertex="1">
          <mxGeometry y="26" width="180" height="64" as="geometry" />
        </mxCell>
        <mxCell id="-veU9qJLNlzz8U-IbR3Y-7" value="" style="line;strokeWidth=1;fillColor=none;align=left;verticalAlign=middle;spacingTop=-1;spacingLeft=3;spacingRight=3;rotatable=0;labelPosition=right;points=[];portConstraint=eastwest;strokeColor=inherit;" parent="-veU9qJLNlzz8U-IbR3Y-5" vertex="1">
          <mxGeometry y="90" width="180" height="8" as="geometry" />
        </mxCell>
        <mxCell id="-veU9qJLNlzz8U-IbR3Y-9" value="&amp;lt;&amp;lt;Abstract&amp;gt;&amp;gt;Persona" style="swimlane;fontStyle=1;align=center;verticalAlign=top;childLayout=stackLayout;horizontal=1;startSize=26;horizontalStack=0;resizeParent=1;resizeParentMax=0;resizeLast=0;collapsible=1;marginBottom=0;whiteSpace=wrap;html=1;" parent="1" vertex="1">
          <mxGeometry x="316" y="70" width="218" height="118" as="geometry" />
        </mxCell>
        <mxCell id="-veU9qJLNlzz8U-IbR3Y-10" value="&lt;div&gt;+ nombre :String&lt;/div&gt;&lt;div&gt;+ direccion : String&lt;/div&gt;" style="text;strokeColor=none;fillColor=none;align=left;verticalAlign=top;spacingLeft=4;spacingRight=4;overflow=hidden;rotatable=0;points=[[0,0.5],[1,0.5]];portConstraint=eastwest;whiteSpace=wrap;html=1;" parent="-veU9qJLNlzz8U-IbR3Y-9" vertex="1">
          <mxGeometry y="26" width="218" height="64" as="geometry" />
        </mxCell>
        <mxCell id="-veU9qJLNlzz8U-IbR3Y-11" value="" style="line;strokeWidth=1;fillColor=none;align=left;verticalAlign=middle;spacingTop=-1;spacingLeft=3;spacingRight=3;rotatable=0;labelPosition=right;points=[];portConstraint=eastwest;strokeColor=inherit;" parent="-veU9qJLNlzz8U-IbR3Y-9" vertex="1">
          <mxGeometry y="90" width="218" height="28" as="geometry" />
        </mxCell>
        <mxCell id="-veU9qJLNlzz8U-IbR3Y-13" value="Cliente" style="swimlane;fontStyle=1;align=center;verticalAlign=top;childLayout=stackLayout;horizontal=1;startSize=26;horizontalStack=0;resizeParent=1;resizeParentMax=0;resizeLast=0;collapsible=1;marginBottom=0;whiteSpace=wrap;html=1;" parent="1" vertex="1">
          <mxGeometry x="470" y="380" width="220" height="230" as="geometry" />
        </mxCell>
        <mxCell id="-veU9qJLNlzz8U-IbR3Y-14" value="&lt;div&gt;+ pedidos : List&amp;lt;Pedido&amp;gt;&lt;br&gt;&lt;/div&gt;" style="text;strokeColor=none;fillColor=none;align=left;verticalAlign=top;spacingLeft=4;spacingRight=4;overflow=hidden;rotatable=0;points=[[0,0.5],[1,0.5]];portConstraint=eastwest;whiteSpace=wrap;html=1;" parent="-veU9qJLNlzz8U-IbR3Y-13" vertex="1">
          <mxGeometry y="26" width="220" height="64" as="geometry" />
        </mxCell>
        <mxCell id="-veU9qJLNlzz8U-IbR3Y-15" value="" style="line;strokeWidth=1;fillColor=none;align=left;verticalAlign=middle;spacingTop=-1;spacingLeft=3;spacingRight=3;rotatable=0;labelPosition=right;points=[];portConstraint=eastwest;strokeColor=inherit;" parent="-veU9qJLNlzz8U-IbR3Y-13" vertex="1">
          <mxGeometry y="90" width="220" height="8" as="geometry" />
        </mxCell>
        <mxCell id="-veU9qJLNlzz8U-IbR3Y-16" value="&lt;div&gt;&lt;div&gt;&amp;lt;&amp;lt;create&amp;gt;&amp;gt; Cliente&lt;/div&gt;&lt;div&gt;(nombre: String, ,&amp;nbsp;&lt;/div&gt;&lt;div&gt;direccion: String)&lt;/div&gt;+ crearPedido(MetodoPago: formaPago, formaDeEnvio: Envio, unProducto: Producto, cant: Int) : void&lt;/div&gt;&lt;div&gt;+ conocerProductoCategoria(): Map&amp;lt;String, Integer&amp;gt;&lt;br&gt;&lt;/div&gt;" style="text;strokeColor=none;fillColor=none;align=left;verticalAlign=top;spacingLeft=4;spacingRight=4;overflow=hidden;rotatable=0;points=[[0,0.5],[1,0.5]];portConstraint=eastwest;whiteSpace=wrap;html=1;" parent="-veU9qJLNlzz8U-IbR3Y-13" vertex="1">
          <mxGeometry y="98" width="220" height="132" as="geometry" />
        </mxCell>
        <mxCell id="-veU9qJLNlzz8U-IbR3Y-17" value="Pedido" style="swimlane;fontStyle=1;align=center;verticalAlign=top;childLayout=stackLayout;horizontal=1;startSize=26;horizontalStack=0;resizeParent=1;resizeParentMax=0;resizeLast=0;collapsible=1;marginBottom=0;whiteSpace=wrap;html=1;" parent="1" vertex="1">
          <mxGeometry x="490" y="750" width="180" height="270" as="geometry" />
        </mxCell>
        <mxCell id="-veU9qJLNlzz8U-IbR3Y-18" value="&lt;div&gt;+ cliente : Cliente&lt;br&gt;&lt;/div&gt;&lt;div&gt;+ productoSolicitado : Producto&lt;/div&gt;&lt;div&gt;+ cantSolicitada : int&lt;br&gt;&lt;/div&gt;&lt;div&gt;+ formaDePago : String&lt;/div&gt;&lt;div&gt;+ formaDeEnvio : String&lt;/div&gt;" style="text;strokeColor=none;fillColor=none;align=left;verticalAlign=top;spacingLeft=4;spacingRight=4;overflow=hidden;rotatable=0;points=[[0,0.5],[1,0.5]];portConstraint=eastwest;whiteSpace=wrap;html=1;" parent="-veU9qJLNlzz8U-IbR3Y-17" vertex="1">
          <mxGeometry y="26" width="180" height="104" as="geometry" />
        </mxCell>
        <mxCell id="-veU9qJLNlzz8U-IbR3Y-19" value="" style="line;strokeWidth=1;fillColor=none;align=left;verticalAlign=middle;spacingTop=-1;spacingLeft=3;spacingRight=3;rotatable=0;labelPosition=right;points=[];portConstraint=eastwest;strokeColor=inherit;" parent="-veU9qJLNlzz8U-IbR3Y-17" vertex="1">
          <mxGeometry y="130" width="180" height="8" as="geometry" />
        </mxCell>
        <mxCell id="-veU9qJLNlzz8U-IbR3Y-20" value="&amp;lt;&amp;lt;create&amp;gt;&amp;gt; Pedido(cliente: Cliente, formaDePago: MetodoPago, formaDeEnvio: Envio, productoSolicitado: Producto, cantSolicitada: int)&lt;br&gt;+ calcularCostoProducto(): double&lt;br&gt;+ calcularCosto(): double" style="text;strokeColor=none;fillColor=none;align=left;verticalAlign=top;spacingLeft=4;spacingRight=4;overflow=hidden;rotatable=0;points=[[0,0.5],[1,0.5]];portConstraint=eastwest;whiteSpace=wrap;html=1;" parent="-veU9qJLNlzz8U-IbR3Y-17" vertex="1">
          <mxGeometry y="138" width="180" height="132" as="geometry" />
        </mxCell>
        <mxCell id="rAGmqaZjJyk7b_XVC86M-2" value="Extends" style="endArrow=block;endSize=16;endFill=0;html=1;rounded=0;exitX=0.5;exitY=0;exitDx=0;exitDy=0;entryX=0.75;entryY=1;entryDx=0;entryDy=0;" edge="1" parent="1" source="-veU9qJLNlzz8U-IbR3Y-13" target="-veU9qJLNlzz8U-IbR3Y-9">
          <mxGeometry width="160" relative="1" as="geometry">
            <mxPoint x="570" y="410" as="sourcePoint" />
            <mxPoint x="470" y="240" as="targetPoint" />
          </mxGeometry>
        </mxCell>
      </root>
    </mxGraphModel>
  </diagram>
</mxfile>
